<svg id="visual" viewBox="0 0 900 600" width="900" height="600" xmlns="http://www.w3.org/2000/svg" xmlns:xlink="http://www.w3.org/1999/xlink" version="1.1"><rect x="0" y="0" width="900" height="600" fill="#ffffff"></rect><defs><linearGradient id="grad1_0" x1="33.3%" y1="0%" x2="100%" y2="100%"><stop offset="20%" stop-color="#ffffff" stop-opacity="1"></stop><stop offset="80%" stop-color="#ffffff" stop-opacity="1"></stop></linearGradient></defs><defs><linearGradient id="grad2_0" x1="0%" y1="0%" x2="66.7%" y2="100%"><stop offset="20%" stop-color="#ffffff" stop-opacity="1"></stop><stop offset="80%" stop-color="#ffffff" stop-opacity="1"></stop></linearGradient></defs><g transform="translate(900, 0)"><path d="M0 297.5C-39.3 295.1 -78.6 292.7 -113.8 274.8C-149.1 256.9 -180.2 223.4 -186.7 186.7C-193.2 150 -175 110.1 -189.4 78.5C-203.8 46.8 -250.6 23.4 -297.5 0L0 0Z" fill="#FBAE3C"></path></g><g transform="translate(0, 600)"><path d="M0 -297.5C43 -297.5 86.1 -297.5 113.8 -274.8C141.6 -252.1 154.1 -206.8 176.8 -176.8C199.4 -146.8 232.3 -132.1 254.1 -105.2C275.9 -78.3 286.7 -39.2 297.5 0L0 0Z" fill="#FBAE3C"></path></g></svg>